<?xml version="1.0" encoding="UTF-8"?>
<svg width="80px" height="80px" viewBox="0 0 80 80" version="1.1" xmlns="http://www.w3.org/2000/svg" xmlns:xlink="http://www.w3.org/1999/xlink">
    <!-- Generator: Sketch 52.6 (67491) - http://www.bohemiancoding.com/sketch -->
    <title>icon</title>
    <desc>Created with Sketch.</desc>
    <defs>
        <radialGradient cx="50.8089869%" cy="33.1388455%" fx="50.8089869%" fy="33.1388455%" r="66.8611545%" gradientTransform="translate(0.508090,0.331388),scale(0.980769,1.000000),rotate(90.000000),translate(-0.508090,-0.331388)" id="radialGradient-1">
            <stop stop-color="#B4EC51" offset="0%"></stop>
            <stop stop-color="#429321" offset="100%"></stop>
        </radialGradient>
    </defs>
    <g id="Icon" stroke="none" stroke-width="1" fill="none" fill-rule="evenodd">
        <path d="M20.7303974,60.9065421 C19.8088077,60.9065421 19.2502685,60.3457944 19.2502685,59.4485981 L19.2502685,50.3364486 L15.0332975,50.3364486 C14.4468314,50.3364486 14,49.8878505 14,49.2990654 C14,48.7102804 14.4468314,48.2616822 15.0332975,48.2616822 L19.2502685,48.2616822 L19.2502685,40.4672897 L15.0332975,40.4672897 C14.4468314,40.4672897 14,40.0186916 14,39.4299065 C14,38.8411215 14.4468314,38.3925234 15.0332975,38.3925234 L19.2502685,38.3925234 L19.2502685,30.5981308 L15.0332975,30.5981308 C14.4468314,30.5981308 14,30.1495327 14,29.5607477 C14,28.9719626 14.4468314,28.5233645 15.0332975,28.5233645 L19.2502685,28.5233645 L19.2502685,19.5233645 C19.2502685,18.6261682 19.8088077,18.0654206 20.7303974,18.0654206 L29.7228786,18.0654206 L29.7228786,15.0373832 C29.7228786,14.4205607 30.16971,14 30.7561762,14 C31.3705693,14 31.8174006,14.4205607 31.8174006,15.0373832 L31.8174006,18.0654206 L39.5531686,18.0654206 L39.5531686,15.0373832 C39.5531686,14.4205607 40,14 40.5864662,14 C41.2008593,14 41.6197637,14.4205607 41.6197637,15.0373832 L41.6197637,18.0654206 L49.3834586,18.0654206 L49.3834586,15.0373832 C49.3834586,14.4205607 49.83029,14 50.4167562,14 C51.0032223,14 51.4500537,14.4205607 51.4500537,15.0373832 L51.4500537,18.0654206 L60.4704619,18.0654206 C61.3641246,18.0654206 61.9226638,18.6261682 61.9226638,19.5233645 L61.9226638,28.5233645 L64.9667025,28.5233645 C65.5531686,28.5233645 66,28.9719626 66,29.5607477 C66,30.1495327 65.5531686,30.5981308 64.9667025,30.5981308 L61.9226638,30.5981308 L61.9226638,38.3925234 L64.9667025,38.3925234 C65.5531686,38.3925234 66,38.8411215 66,39.4299065 C66,40.0186916 65.5531686,40.4672897 64.9667025,40.4672897 L61.9226638,40.4672897 L61.9226638,48.2616822 L64.9667025,48.2616822 C65.5531686,48.2616822 66,48.7102804 66,49.2990654 C66,49.8878505 65.5531686,50.3364486 64.9667025,50.3364486 L61.9226638,50.3364486 L61.9226638,59.4485981 C61.9226638,60.3457944 61.3641246,60.9065421 60.4704619,60.9065421 L51.7572503,60.9065421 L51.7572503,63.9626168 C51.7572503,64.5514019 51.3104189,65 50.7239527,65 C50.1374866,65 49.6906552,64.5514019 49.6906552,63.9626168 L49.6906552,60.9065421 L41.6197637,60.9065421 L41.6197637,63.9626168 C41.6197637,64.5514019 41.2008593,65 40.5864662,65 C40,65 39.5531686,64.5514019 39.5531686,63.9626168 L39.5531686,60.9065421 L31.8174006,60.9065421 L31.8174006,63.9626168 C31.8174006,64.5514019 31.3705693,65 30.7561762,65 C30.16971,65 29.7228786,64.5514019 29.7228786,63.9626168 L29.7228786,60.9065421 L20.7303974,60.9065421 Z M40.6392171,56.482866 C50.0716263,56.482866 57.7181048,48.8061535 57.7181048,39.3364486 C57.7181048,29.8667437 50.0716263,22.1900312 40.6392171,22.1900312 C31.2068079,22.1900312 23.5603294,29.8667437 23.5603294,39.3364486 C23.5603294,48.8061535 31.2068079,56.482866 40.6392171,56.482866 Z M40.3172813,51.1103072 C37.4229622,51.1103072 35.0328798,50.077597 33.3890679,48.2956655 L32.0578828,49.4296219 C31.553646,49.8649801 30.9082229,49.8751047 30.5149182,49.3891234 C30.1216136,48.9132667 30.2325456,48.2652917 30.7266977,47.840058 L32.1889844,46.6048555 C31.4729681,45.2886562 31.0494092,43.7092169 30.9889008,41.9475347 L29.4358515,41.9576593 C28.770259,41.9576593 28.3265306,41.5425502 28.3265306,40.924949 C28.3265306,40.3073477 28.770259,39.8821141 29.4358515,39.8821141 L31.0998329,39.8719895 C31.2914429,38.5962885 31.6847476,37.3509614 32.2595775,36.2170051 L30.4947488,34.8198088 C29.990512,34.4046998 29.8795799,33.7466001 30.2728846,33.280868 C30.6661893,32.8050113 31.2914429,32.8252605 31.8057644,33.2403695 L33.348729,34.475572 C33.7117794,33.9997153 34.1151689,33.5542325 34.5488125,33.1593727 C34.5992362,31.4179396 35.3858456,30.0916157 36.7069459,29.2816468 L36.7977086,28.8969116 C36.858217,28.6437963 36.7573696,28.4818026 36.3842344,28.3704319 L35.7690655,28.1679396 C34.4479652,27.8034537 35.0933882,25.7886562 36.4245733,26.2442636 L37.1809285,26.5277527 C38.1793173,26.8821141 38.7339778,27.5908368 38.764232,28.5324256 C39.2482993,28.4413041 39.7626208,28.4008057 40.3172813,28.4008057 C40.861857,28.4008057 41.3761785,28.4413041 41.8602459,28.5324256 C41.8905001,27.5807122 42.4451605,26.8821141 43.4536341,26.5277527 L44.2099893,26.2442636 C45.5411744,25.7886562 46.1865974,27.8034537 44.8554123,28.1679396 L44.2503282,28.3704319 C43.8671082,28.4818026 43.7662609,28.6437963 43.8267693,28.8969116 L43.9175319,29.2816468 C45.248717,30.0916157 46.0353264,31.4179396 46.0857501,33.1593727 C46.5193937,33.5542325 46.9126984,33.9997153 47.2858336,34.475572 L48.8187135,33.2403695 C49.333035,32.8252605 49.9683733,32.8050113 50.361678,33.280868 C50.744898,33.7466001 50.6440506,34.4046998 50.1398138,34.8198088 L48.3749851,36.2271297 C48.9397303,37.3610861 49.3431197,38.6064132 49.5246449,39.8719895 L51.1987111,39.8821141 C51.8542189,39.8821141 52.308032,40.3073477 52.308032,40.924949 C52.308032,41.5425502 51.8542189,41.9576593 51.1987111,41.9576593 L49.635577,41.9475347 C49.5750686,43.7092169 49.1615945,45.2886562 48.4455782,46.6048555 L49.8977802,47.840058 C50.3919322,48.2652917 50.512949,48.9132667 50.1196443,49.3891234 C49.7263397,49.8751047 49.0809166,49.8649801 48.5766798,49.4296219 L47.23541,48.2956655 C45.6016828,50.077597 43.2015157,51.1103072 40.3172813,51.1103072 Z M40.3172813,36.0043882 C38.5827068,36.0043882 36.8077933,35.7107745 35.5068624,35.2450424 C34.1756773,36.7333602 33.0966106,38.9506499 33.0966106,41.5020518 C33.0966106,45.6936406 35.6077098,48.56903 39.4600788,48.9436406 L39.4600788,38.0293104 C39.4600788,37.5635783 39.8231293,37.1889677 40.2971118,37.1889677 C40.7610097,37.1889677 41.1240602,37.5635783 41.1240602,38.0293104 L41.1240602,48.9436406 C45.0066834,48.5892792 47.5278673,45.7138898 47.5278673,41.5020518 C47.5278673,38.9506499 46.4387158,36.7232356 45.1176155,35.2450424 C43.8267693,35.7107745 42.0518558,36.0043882 40.3172813,36.0043882 Z M37.0397422,39.4568804 C36.2733023,39.4568804 35.637964,38.81903 35.637964,38.0495596 C35.637964,37.2699646 36.2733023,36.6321141 37.0397422,36.6321141 C37.8162669,36.6321141 38.4415205,37.2699646 38.4415205,38.0495596 C38.4415205,38.81903 37.8162669,39.4568804 37.0397422,39.4568804 Z M43.5948204,39.4568804 C42.8182957,39.4568804 42.1829574,38.81903 42.1829574,38.0495596 C42.1829574,37.2699646 42.8182957,36.6321141 43.5948204,36.6321141 C44.3612603,36.6321141 44.9865139,37.2699646 44.9865139,38.0495596 C44.9865139,38.81903 44.3612603,39.4568804 43.5948204,39.4568804 Z M35.8094045,43.5370985 C34.911863,43.5370985 34.185762,42.8081266 34.185762,41.9070362 C34.185762,41.0261951 34.911863,40.2972231 35.8094045,40.2972231 C36.6867765,40.2972231 37.4128774,41.0261951 37.4128774,41.9070362 C37.4128774,42.8081266 36.6867765,43.5370985 35.8094045,43.5370985 Z M44.8251581,43.5370985 C43.9377014,43.5370985 43.2116004,42.8081266 43.2116004,41.9070362 C43.2116004,41.0261951 43.9377014,40.2972231 44.8251581,40.2972231 C45.7126149,40.2972231 46.4387158,41.0261951 46.4387158,41.9070362 C46.4387158,42.8081266 45.7126149,43.5370985 44.8251581,43.5370985 Z M37.0397422,47.0402138 C36.3438955,47.0402138 35.7690655,46.4732356 35.7690655,45.7746375 C35.7690655,45.0659147 36.3438955,44.4888119 37.0397422,44.4888119 C37.735589,44.4888119 38.3104189,45.0659147 38.3104189,45.7746375 C38.3104189,46.4732356 37.735589,47.0402138 37.0397422,47.0402138 Z M43.5948204,47.0402138 C42.8888889,47.0402138 42.314059,46.4732356 42.314059,45.7746375 C42.314059,45.0659147 42.8888889,44.4888119 43.5948204,44.4888119 C44.2906671,44.4888119 44.8654971,45.0659147 44.8654971,45.7746375 C44.8654971,46.4732356 44.2906671,47.0402138 43.5948204,47.0402138 Z" id="Combined-Shape" fill="url(#radialGradient-1)"></path>
    </g>
</svg>